<svg width="256" height="256" viewBox="0 0 256 256" fill="none" xmlns="http://www.w3.org/2000/svg">
  <rect width="256" height="256" rx="64" fill="url(#bg)"/>
  <g filter="url(#shadow)">
    <path d="M128 50C155.614 50 178 72.3858 178 100V128H128V50Z" fill="#79A6FF"/>
    <path d="M128 50C100.386 50 78 72.3858 78 100V128H128V50Z" fill="#111A2C"/>
    <path d="M78 128C78 155.614 100.386 178 128 178V128H78Z" fill="#6EAD31"/>
    <path d="M178 128C178 155.614 155.614 178 128 178V128H178Z" fill="#2E5FAE"/>
    <circle cx="128" cy="128" r="19" fill="#1D273A"/>
  </g>
  <path d="M64 155.5C84.5714 155.5 90.2857 134 110.857 134C131.429 134 137.143 165 157.714 165C178.286 165 184 110 204 110" stroke="#DDE7FF" stroke-width="14" stroke-linecap="round"/>
  <circle cx="204" cy="110" r="12" fill="#DDE7FF"/>
  <defs>
    <linearGradient id="bg" x1="34" y1="24" x2="221" y2="233" gradientUnits="userSpaceOnUse">
      <stop stop-color="#121A2C"/>
      <stop offset="1" stop-color="#0A1020"/>
    </linearGradient>
    <filter id="shadow" x="60" y="36" width="136" height="156" filterUnits="userSpaceOnUse" color-interpolation-filters="sRGB">
      <feFlood flood-opacity="0" result="BackgroundImageFix"/>
      <feColorMatrix in="SourceAlpha" type="matrix" values="0 0 0 0 0 0 0 0 0 0 0 0 0 0 0 0 0 0 127 0" result="hardAlpha"/>
      <feOffset dy="4"/>
      <feGaussianBlur stdDeviation="8"/>
      <feComposite in2="hardAlpha" operator="out"/>
      <feColorMatrix type="matrix" values="0 0 0 0 0.0196078 0 0 0 0 0.0392157 0 0 0 0 0.0980392 0 0 0 0.35 0"/>
      <feBlend mode="normal" in2="BackgroundImageFix" result="effect1_dropShadow_1_2"/>
      <feBlend mode="normal" in="SourceGraphic" in2="effect1_dropShadow_1_2" result="shape"/>
    </filter>
  </defs>
</svg>
